#!OML:ASF E:\id_vita\Project 1\Capture day 1\Session 1\Female.ASF
:FULLY-SPECIFIED
:DEGREES
811
root -21.257 16.3441 -1.51909 11.198 -118.468 0.593026
lowerback -17.5455 -1.01893 -4.38128
upperback -4.75514 -0.956625 0.140703
thorax 4.78376 -0.656606 2.41861
lowerneck 11.1863 -7.99538 -5.82688
upperneck -14.1052 -11.5688 2.78712
head -5.59088 -5.59372 2.69029
rclavicle -4.60932e-014 -1.74931e-014
rhumerus -38.2381 -11.5775 -82.616
rradius 33.0275
rwrist 6.81117
rhand -13.7309 11.4471
rfingers 7.12502
rthumb 12.3885 -18.1658
lclavicle -4.60932e-014 -1.74931e-014
lhumerus -140.006 29.9087 -65.4449
lradius 14.8239
lwrist -146.543
lhand -2.43393 20.7625
lfingers 7.12502
lthumb 23.2571 49.378
rfemur -21.3741 15.2861 22.6301
rtibia 26.9415
rfoot -13.3759 -3.33537
rtoes -3.65881
lfemur -33.2797 2.97007 -14.0539
ltibia 58.0017
lfoot -14.8786 2.9993
ltoes -11.6578
812
root -21.3152 16.3313 -1.50369 10.8736 -118.845 1.28783
lowerback -17.3923 -0.94561 -4.03659
upperback -4.93363 -0.946982 0.17036
thorax 4.50831 -0.647997 2.25945
lowerneck 11.2461 -7.98615 -6.0003
upperneck -14.1035 -11.5668 2.93181
head -5.58093 -5.59534 2.76252
rclavicle -1.58034e-014 3.97569e-016
rhumerus -37.8336 -11.1639 -83.0249
rradius 33.1734
rwrist 6.46957
rhand -14.0225 11.3715
rfingers 7.12502
rthumb 12.1074 -18.2582
lclavicle -1.58034e-014 3.97569e-016
lhumerus -139.385 29.9025 -65.0526
lradius 14.6082
lwrist -145.729
lhand -2.67371 21.0667
lfingers 7.12502
lthumb 23.0271 49.7111
rfemur -21.6114 15.7683 22.7809
rtibia 26.9551
rfoot -13.3209 -3.56348
rtoes -5.09201
lfemur -34.0766 1.92564 -12.8592
ltibia 56.5384
lfoot -15.0157 2.70671
ltoes -10.7883
813
root -21.4365 16.3507 -1.50308 11.5166 -120.08 0.601849
lowerback -17.888 -0.649879 -4.02687
upperback -4.85572 -0.52936 -0.0850318
thorax 4.82318 -0.453677 2.06676
lowerneck 11.3749 -7.95558 -6.05906
upperneck -14.2685 -11.5387 3.01401
head -5.64703 -5.5816 2.80784
rclavicle -4.03533e-014 2.38542e-015
rhumerus -37.5262 -10.7336 -83.4486
rradius 33.4951
rwrist 6.09282
rhand -14.5536 11.2131
rfingers 7.12502
rthumb 11.5952 -18.4461
lclavicle -4.03533e-014 2.38542e-015
lhumerus -137.857 31.2317 -62.9091
lradius 14.3188
lwrist -142.92
lhand -2.92495 21.3652
lfingers 7.12502
lthumb 22.786 50.0394
rfemur -21.1841 16.2586 22.0722
rtibia 26.9115
rfoot -13.9767 -3.07414
rtoes -4.38711
lfemur -33.8087 1.12277 -12.6445
ltibia 54.8415
lfoot -15.5507 2.85266
ltoes -11.0281
814
root -21.5066 16.3504 -1.49223 11.8899 -120.71 0.378072
lowerback -17.6772 -0.630749 -4.17808
upperback -5.00196 -0.500752 -0.140168
thorax 4.55255 -0.438643 2.10188
lowerneck 11.7541 -7.91926 -6.05833
upperneck -14.7754 -11.5351 3.02891
head -5.87035 -5.56952 2.85288
rclavicle -1.40143e-014 -9.93923e-015
rhumerus -37.2684 -10.123 -83.9073
rradius 33.8154
rwrist 5.81563
rhand -15.1239 11.2684
rfingers 7.12502
rthumb 11.0453 -18.421
lclavicle -1.40143e-014 -9.93923e-015
lhumerus -135.874 32.983 -59.9308
lradius 13.9918
lwrist -139.409
lhand -2.4634 21.3731
lfingers 7.12502
lthumb 23.2289 49.9922
rfemur -21.2249 17.0445 21.6058
rtibia 26.9419
rfoot -13.977 -3.18602
rtoes -4.01192
lfemur -34.227 -0.0274246 -11.9229
ltibia 53.2418
lfoot -15.6395 2.51648
ltoes -11.4316
815
root -21.5981 16.3573 -1.48218 12.3096 -121.702 -0.111864
lowerback -17.6755 -0.488945 -4.25442
upperback -5.00018 -0.297851 -0.29433
thorax 4.53889 -0.341597 2.02432
lowerneck 11.978 -7.90394 -6.31332
upperneck -15.066 -11.5519 3.25888
head -5.96947 -5.57723 2.98579
rclavicle -7.61842e-014 -3.97569e-015
rhumerus -36.8312 -9.91334 -84.2042
rradius 33.7712
rwrist 6.09918
rhand -15.3712 11.4982
rfingers 7.12502
rthumb 10.8068 -18.2038
lclavicle -7.61842e-014 -3.97569e-015
lhumerus -134.004 34.5169 -57.1056
lradius 13.6814
lwrist -135.995
lhand -2.41518 21.5591
lfingers 7.12502
lthumb 23.2751 50.1723
rfemur -20.9117 17.59 21.0405
rtibia 26.8193
rfoot -14.3124 -2.98553
rtoes -4.28259
lfemur -34.0709 -1.15796 -11.431
ltibia 51.4416
lfoot -15.9931 2.23643
ltoes -11.5912
816
root -21.6598 16.3511 -1.4657 12.3693 -122.24 0.0271027
lowerback -17.4627 -0.469986 -4.1916
upperback -5.1102 -0.304413 -0.328565
thorax 4.30888 -0.342403 1.9521
lowerneck 11.8225 -7.86475 -6.41027
upperneck -15.0006 -11.4875 3.37509
head -5.91237 -5.55381 3.02061
rclavicle 3.72721e-015 5.96354e-015
rhumerus -36.2778 -9.99759 -84.473
rradius 33.5522
rwrist 6.49866
rhand -15.4793 11.7333
rfingers 7.12502
rthumb 10.7024 -17.9741
lclavicle 3.72721e-015 5.96354e-015
lhumerus -132.593 35.5447 -55.0879
lradius 13.45
lwrist -133.383
lhand -2.51932 21.703
lfingers 7.12502
lthumb 23.1752 50.3289
rfemur -21.0274 18.0906 20.8394
rtibia 26.822
rfoot -14.3532 -3.07767
rtoes -4.73832
lfemur -34.4356 -2.46439 -10.3277
ltibia 49.7136
lfoot -16.3593 1.37355
ltoes -11.7626
817
root -21.7727 16.3701 -1.45853 12.8257 -123.65 -0.239047
lowerback -17.9749 -0.153097 -4.06324
upperback -5.16906 0.0998414 -0.506522
thorax 4.49235 -0.156439 1.77429
lowerneck 11.7013 -7.79453 -6.40704
upperneck -14.8882 -11.386 3.34039
head -5.86405 -5.50509 2.99215
rclavicle -6.11263e-015 -4.77083e-015
rhumerus -35.9528 -9.60107 -84.9017
rradius 33.5597
rwrist 6.29615
rhand -15.6305 11.661
rfingers 7.12502
rthumb 10.5566 -18.0538
lclavicle -6.11263e-015 -4.77083e-015
lhumerus -130.96 36.465 -52.8946
lradius 13.2294
lwrist -130.89
lhand -2.05825 21.6074
lfingers 7.12502
lthumb 23.6175 50.1769
rfemur -20.9491 18.3837 20.2557
rtibia 26.765
rfoot -14.9753 -2.48687
rtoes -6.96211
lfemur -34.1991 -3.42181 -9.74298
ltibia 47.9035
lfoot -16.8504 0.870685
ltoes -10.6387
